
        <svg xmlns="http://www.w3.org/2000/svg" xmlns:xlink="http://www.w3.org/1999/xlink" version="1.1" width="3168.5393258426966" 
        height="943.8202247191011" viewBox="0 0 3168.5393258426966 943.8202247191011">
			
			<g transform="scale(8.426966292134832) translate(10, 10)">
				<defs id="SvgjsDefs1588"><linearGradient id="SvgjsLinearGradient1597"><stop id="SvgjsStop1598" stop-color="#8f5e25" offset="0"></stop><stop id="SvgjsStop1599" stop-color="#fbf4a1" offset="0.5"></stop><stop id="SvgjsStop1600" stop-color="#8f5e25" offset="1"></stop></linearGradient><linearGradient id="SvgjsLinearGradient1601"><stop id="SvgjsStop1602" stop-color="#8f5e25" offset="0"></stop><stop id="SvgjsStop1603" stop-color="#fbf4a1" offset="0.5"></stop><stop id="SvgjsStop1604" stop-color="#8f5e25" offset="1"></stop></linearGradient><linearGradient id="SvgjsLinearGradient1605"><stop id="SvgjsStop1606" stop-color="#8f5e25" offset="0"></stop><stop id="SvgjsStop1607" stop-color="#fbf4a1" offset="0.5"></stop><stop id="SvgjsStop1608" stop-color="#8f5e25" offset="1"></stop></linearGradient><linearGradient id="SvgjsLinearGradient1609"><stop id="SvgjsStop1610" stop-color="#8f5e25" offset="0"></stop><stop id="SvgjsStop1611" stop-color="#fbf4a1" offset="0.5"></stop><stop id="SvgjsStop1612" stop-color="#8f5e25" offset="1"></stop></linearGradient></defs><g id="SvgjsG1589" featureKey="symbolFeature-0" transform="matrix(1.113744202683227,0,0,1.113744202683227,-5.68900410422964,-8.982216137853715)" fill="url(#SvgjsLinearGradient1597)"><path xmlns="http://www.w3.org/2000/svg" d="M80.825,76.377c0,0-0.635,0.004-1.825,0.015c-0.298,0.001-0.629,0.003-0.995,0.005c-0.365-0.033-0.765-0.069-1.197-0.107  c-0.435-0.042-0.902-0.087-1.402-0.136c-0.503-0.046-1.013-0.193-1.565-0.296c-2.216-0.395-4.852-1.277-7.642-2.777  c-2.787-1.5-5.724-3.695-8.245-6.746c-2.53-3.024-4.666-6.889-5.785-11.338c-0.176-0.548-0.271-1.116-0.366-1.688  c-0.1-0.574-0.199-1.15-0.3-1.73c-0.077-0.583-0.097-1.176-0.146-1.77l-0.063-0.896l-0.031-0.45l-0.004-0.055  c-0.003-0.002,0.004-0.189,0.002-0.135l0.003-0.107l0.007-0.214c0.016-0.571,0.032-1.146,0.048-1.724  c0.032-0.592,0.154-1.261,0.233-1.894c0.069-0.655,0.221-1.265,0.376-1.877c0.155-0.614,0.277-1.24,0.513-1.836  c0.764-2.442,1.999-4.779,3.577-6.891c1.575-2.116,3.519-4.007,5.758-5.523c2.24-1.514,4.77-2.633,7.416-3.324l0.995-0.259  c0.332-0.082,0.676-0.116,1.014-0.176c0.679-0.087,1.351-0.258,2.038-0.269l1.029-0.057l0.515-0.027l0.258-0.013l0.127-0.007  c0.065,0-0.054-0.005,0.163,0l0.057,0.002c0.643,0.036,1.248,0.044,1.919,0.102c0.722,0.109,1.474,0.197,2.166,0.356  c0.676,0.19,1.368,0.32,2.024,0.569c1.323,0.46,2.612,1.029,3.801,1.759c2.396,1.431,4.47,3.364,6.056,5.612  c1.598,2.243,2.688,4.817,3.19,7.464c0.091,0.667,0.184,1.33,0.276,1.991l0.039,0.999l0.018,0.496l0.009,0.249l0.005,0.124  l0.002,0.063c0,0.059,0.005-0.046,0,0.148l-0.059,0.901c-0.018,0.299-0.029,0.586-0.097,0.958c-0.104,0.703-0.215,1.404-0.408,2.026  c-0.316,1.295-0.872,2.501-1.472,3.653c-0.667,1.116-1.395,2.188-2.298,3.086c-0.854,0.941-1.859,1.706-2.873,2.407  c-1.054,0.645-2.135,1.218-3.273,1.602c-2.245,0.805-4.66,1.063-6.805,0.832c-1.198-0.181-2.29-0.425-3.29-0.868  c-0.517-0.182-0.98-0.468-1.458-0.704c-0.449-0.286-0.909-0.55-1.317-0.876c-1.649-1.269-2.949-2.84-3.733-4.546  c-0.797-1.7-1.157-3.467-1.174-5.107c-0.029-1.625,0.319-3.222,0.962-4.48c0.631-1.273,1.474-2.284,2.343-3.039  c0.872-0.761,1.775-1.276,2.602-1.59c0.4-0.188,0.807-0.27,1.156-0.387c0.365-0.08,0.695-0.144,0.99-0.196  c0.6-0.065,1.055-0.099,1.364-0.082c0.308,0.002,0.467,0.004,0.467,0.004s-0.157,0.018-0.464,0.05  c-0.305,0.018-0.753,0.104-1.326,0.234c-0.281,0.084-0.594,0.184-0.933,0.3c-0.326,0.154-0.698,0.272-1.059,0.495  c-0.742,0.391-1.534,0.958-2.268,1.73c-1.47,1.521-2.665,3.995-2.357,6.889c0.23,2.867,1.817,6.012,4.715,7.917  c0.351,0.247,0.745,0.437,1.123,0.65c0.404,0.163,0.789,0.378,1.22,0.494c0.832,0.319,1.739,0.437,2.567,0.53  c1.938,0.088,3.822-0.205,5.649-0.946c0.915-0.351,1.768-0.863,2.599-1.416c0.791-0.61,1.575-1.255,2.224-2.042  c0.688-0.753,1.227-1.633,1.742-2.523c0.444-0.93,0.865-1.889,1.079-2.915c0.148-0.518,0.196-1,0.268-1.482  c0.048-0.219,0.054-0.531,0.063-0.834l0.034-0.901c-0.004,0.158-0.003,0.014-0.005,0.035l-0.004-0.05l-0.008-0.103l-0.014-0.204  l-0.027-0.409l-0.052-0.818c-0.09-0.54-0.18-1.082-0.27-1.624c-0.48-2.145-1.405-4.208-2.706-6.024  c-1.305-1.813-3.003-3.364-4.948-4.503c-0.966-0.584-2.011-1.029-3.078-1.392c-0.528-0.201-1.09-0.289-1.634-0.444  c-0.541-0.122-1.055-0.16-1.581-0.262c-0.589-0.058-1.254-0.076-1.876-0.116l-1.644,0.077c-0.583-0.003-1.147,0.149-1.723,0.212  c-0.285,0.049-0.575,0.069-0.854,0.138l-0.84,0.213c-2.235,0.563-4.38,1.483-6.288,2.749c-3.775,2.561-6.767,6.242-8.19,10.408  c-0.222,0.505-0.334,1.041-0.483,1.565c-0.149,0.526-0.297,1.05-0.358,1.559c-0.077,0.521-0.193,0.995-0.25,1.553  c-0.042,0.576-0.084,1.15-0.125,1.72l-0.016,0.214l-0.008,0.107c-0.003,0.089-0.001-0.062,0-0.027l0.002,0.05l0.012,0.402  l0.022,0.804c0.022,0.534,0.011,1.067,0.058,1.594c0.067,0.523,0.135,1.046,0.202,1.563c0.062,0.52,0.122,1.036,0.261,1.535  c0.856,4.041,2.563,7.673,4.722,10.616c2.167,2.942,4.735,5.217,7.258,6.845c2.535,1.609,4.972,2.722,7.079,3.304  c0.525,0.149,1.016,0.344,1.493,0.433c0.476,0.101,0.922,0.195,1.337,0.282c0.42,0.088,0.809,0.169,1.165,0.243  c0.362,0.04,0.694,0.075,0.989,0.107C80.195,76.309,80.825,76.377,80.825,76.377z"></path><path xmlns="http://www.w3.org/2000/svg" d="M34.445,47.042c0,0,0.098,0.725,0.206,1.992c0.025,0.316,0.054,0.667,0.085,1.05c-0.002,0.386-0.028,0.806-0.046,1.259  c-0.021,0.455-0.042,0.939-0.065,1.452c-0.012,0.519-0.15,1.027-0.229,1.582c-0.094,0.553-0.193,1.129-0.295,1.724  c-0.167,0.582-0.341,1.182-0.52,1.799c-0.093,0.311-0.188,0.624-0.283,0.941c-0.107,0.313-0.248,0.616-0.375,0.932  c-0.267,0.625-0.54,1.264-0.818,1.915c-0.695,1.224-1.344,2.551-2.266,3.725c-0.818,1.254-1.882,2.339-2.89,3.471  c-1.13,1.008-2.216,2.072-3.468,2.89c-1.172,0.926-2.503,1.569-3.726,2.27c-0.649,0.278-1.289,0.551-1.914,0.818  c-0.315,0.125-0.62,0.268-0.933,0.375c-0.316,0.096-0.631,0.189-0.939,0.283c-0.619,0.178-1.219,0.352-1.8,0.52  c-0.596,0.103-1.172,0.201-1.724,0.295c-0.554,0.076-1.068,0.215-1.58,0.228c-0.507,0.022-0.988,0.043-1.439,0.063  c-0.449,0.015-0.867,0.042-1.254,0.045c-0.389-0.031-0.744-0.06-1.066-0.085c-1.282-0.108-1.998-0.208-1.998-0.208  s0.723-0.171,1.957-0.405c0.307-0.058,0.646-0.123,1.017-0.193c0.364-0.112,0.757-0.208,1.176-0.326  c0.837-0.223,1.773-0.458,2.759-0.841c0.492-0.177,1.006-0.358,1.537-0.548c0.512-0.232,1.042-0.473,1.587-0.72  c0.271-0.119,0.546-0.24,0.825-0.362c0.274-0.13,0.539-0.294,0.813-0.442c0.545-0.295,1.102-0.599,1.668-0.906  c1.061-0.737,2.216-1.392,3.246-2.265c1.094-0.788,2.059-1.757,3.071-2.67c0.914-1.013,1.886-1.978,2.672-3.071  c0.878-1.027,1.528-2.186,2.268-3.245c0.308-0.566,0.61-1.122,0.907-1.667c0.147-0.274,0.312-0.539,0.442-0.814  c0.122-0.277,0.243-0.554,0.362-0.824c0.246-0.546,0.487-1.075,0.72-1.588c0.188-0.531,0.371-1.045,0.547-1.537  c0.384-0.99,0.616-1.91,0.839-2.742c0.115-0.414,0.213-0.807,0.326-1.17c0.069-0.376,0.135-0.723,0.192-1.035  C34.275,47.755,34.445,47.042,34.445,47.042z"></path><path xmlns="http://www.w3.org/2000/svg" d="M37.996,50.599c0,0-0.102-0.667-0.215-1.833c-0.026-0.292-0.057-0.614-0.09-0.965c-0.001-0.356,0.02-0.744,0.031-1.161  c0.015-0.42,0.031-0.869,0.048-1.34c0.007-0.48,0.134-0.949,0.2-1.461c0.084-0.511,0.171-1.042,0.262-1.592  c0.151-0.537,0.308-1.091,0.469-1.663c0.084-0.285,0.17-0.575,0.257-0.869c0.099-0.289,0.228-0.57,0.342-0.861  c0.245-0.578,0.494-1.169,0.749-1.77c0.639-1.132,1.234-2.359,2.084-3.445c0.752-1.157,1.732-2.161,2.663-3.205  c1.045-0.931,2.047-1.913,3.204-2.667c1.084-0.852,2.313-1.443,3.445-2.085c0.601-0.255,1.188-0.515,1.769-0.749  c0.292-0.115,0.572-0.244,0.861-0.342c0.294-0.088,0.583-0.173,0.869-0.258c0.57-0.161,1.126-0.317,1.663-0.469  c0.55-0.09,1.082-0.177,1.592-0.261c0.511-0.067,0.986-0.191,1.459-0.199c0.467-0.016,0.909-0.031,1.326-0.045  c0.415-0.012,0.8-0.033,1.156-0.03c0.357,0.032,0.686,0.062,0.982,0.089c1.18,0.113,1.838,0.215,1.838,0.215  s-0.664,0.169-1.798,0.399c-0.281,0.057-0.593,0.12-0.932,0.188c-0.334,0.107-0.695,0.2-1.077,0.31  c-0.767,0.214-1.624,0.438-2.526,0.797c-0.45,0.164-0.92,0.336-1.405,0.514c-0.468,0.216-0.951,0.439-1.449,0.668  c-0.248,0.111-0.5,0.223-0.754,0.336c-0.251,0.121-0.493,0.272-0.743,0.409c-0.497,0.274-1.006,0.553-1.522,0.838  c-0.969,0.679-2.023,1.28-2.964,2.082c-0.999,0.723-1.882,1.609-2.808,2.445c-0.836,0.926-1.725,1.808-2.447,2.807  c-0.805,0.938-1.402,1.996-2.085,2.962c-0.284,0.517-0.563,1.026-0.837,1.523c-0.137,0.25-0.288,0.491-0.409,0.743  c-0.114,0.255-0.226,0.506-0.337,0.755c-0.23,0.498-0.453,0.981-0.67,1.45c-0.177,0.485-0.348,0.955-0.512,1.406  c-0.359,0.906-0.582,1.748-0.793,2.507c-0.111,0.381-0.203,0.74-0.311,1.074c-0.07,0.345-0.133,0.663-0.189,0.95  C38.162,49.945,37.996,50.599,37.996,50.599z"></path></g><g id="SvgjsG1590" featureKey="textGroupContainer" transform="matrix(1,0,0,1,355,0)" fill="url(#SvgjsLinearGradient1601)"><rect xmlns="http://www.w3.org/2000/svg" y="0" height="1" width="1" opacity="0"></rect><rect xmlns="http://www.w3.org/2000/svg" y="0" x="-235" width="3" height="92"></rect></g><g id="SvgjsG1591" featureKey="vMvB0T-0" transform="matrix(1.8201673745218783,0,0,1.8201673745218783,135.26974958915977,11.78776925068073)" fill="url(#SvgjsLinearGradient1605)"><path d="M4.66 15.96 l-0.02 1.44 l0 0.02 q0.92 -0.04 1.48 -0.04 l4.64 0 q0 0.74 -0.06 1.14 q-0.24 1.54 -2.04 1.54 l-5.32 0 q-0.86 0 -1.35 -0.5 t-0.49 -1.36 l0 -11.72 l0.14 -0.14 l8.62 0 q0.12 0.58 0.12 1.26 t-0.28 1.42 l-5.46 0 l0.02 1.44 l0 1.4 q0.52 -0.02 1.36 -0.02 l3.06 0 q0.18 0.56 0.18 1.28 t-0.18 1.32 l-4.42 0 l0 1.52 z M17.8 17.32 l2.62 -10.98 q0.48 -0.12 1.24 -0.12 q1.04 0 1.64 0.22 l0.12 0.16 l-3.74 13.4 q-1.14 0.12 -2.29 0.12 t-1.66 -0.29 t-0.77 -1.15 l-3.32 -12.06 q1.08 -0.46 1.78 -0.46 q0.84 0 1.24 0.38 t0.62 1.2 l1.54 5.7 q0.36 1.34 0.76 3.64 q0.04 0.24 0.22 0.24 z M28.240000000000002 15.96 l-0.02 1.44 l0 0.02 q0.92 -0.04 1.48 -0.04 l4.64 0 q0 0.74 -0.06 1.14 q-0.24 1.54 -2.04 1.54 l-5.32 0 q-0.86 0 -1.35 -0.5 t-0.49 -1.36 l0 -11.72 l0.14 -0.14 l8.62 0 q0.12 0.58 0.12 1.26 t-0.28 1.42 l-5.46 0 l0.02 1.44 l0 1.4 q0.52 -0.02 1.36 -0.02 l3.06 0 q0.18 0.56 0.18 1.28 t-0.18 1.32 l-4.42 0 l0 1.52 z M47.32000000000001 6.199999999999999 l0.14 0.14 l0 13.6 q-0.8 0.18 -1.89 0.18 t-1.93 -0.12 l-3.14 -7.16 q-0.56 -1.22 -1.14 -2.82 l-0.06 0.02 q0.24 2.92 0.24 5.98 l0 3.98 q-0.62 0.12 -1.5 0.12 t-1.48 -0.12 l0 -13.6 q0.76 -0.18 1.83 -0.18 t1.91 0.12 l3.1 7.14 q0.84 1.98 1.24 3.04 l0.08 -0.04 q-0.24 -2.78 -0.24 -5.9 l0 -2.44 q0 -1.04 0.42 -1.49 t1.36 -0.45 l1.06 0 z M55.66000000000001 8.98 l0.02 1.48 l0 9.54 q-0.68 0.12 -1.62 0.12 t-1.58 -0.12 l0 -11.02 l-1.28 0.02 l-2.06 0 q-0.12 -0.58 -0.12 -1.33 t0.12 -1.33 l9.9 0 q0.16 0.52 0.16 1.26 t-0.4 1.07 t-1.28 0.33 l-0.58 0 l-1.26 -0.02 l-0.02 0 z M61.82000000000001 18.68 l-2.36 -12.16 q0.96 -0.36 1.7 -0.36 q0.84 0 1.22 0.37 t0.54 1.39 l0.84 5.16 q0.38 2.32 0.48 3.24 t0.13 0.96 t0.13 0.04 l1.66 -10.72 q0.74 -0.14 2.06 -0.14 t2.04 0.14 l1.52 10.46 q0.02 0.18 0.07 0.22 t0.15 0.04 q0.18 -1.88 0.6 -4.26 l1.12 -6.72 q0.58 -0.12 1.34 -0.12 q0.92 0 1.62 0.22 l0.14 0.18 l-2.64 13.36 q-1.3 0.14 -2.44 0.14 t-1.62 -0.28 t-0.62 -1.16 l-0.68 -4.34 q-0.36 -2.36 -0.58 -4.64 l-0.14 0 q-0.22 1.94 -0.66 4.64 l-0.9 5.64 q-1.36 0.14 -2.47 0.14 t-1.59 -0.28 t-0.66 -1.16 z M81.58000000000001 17.14 q-0.54 0 -0.8 -0.02 l-0.86 2.9 q-0.48 0.12 -1.34 0.12 q-0.96 0 -1.56 -0.22 l-0.1 -0.16 l4.4 -13.42 q0.78 -0.12 1.82 -0.12 q1.18 0 1.88 0.14 l4.32 13.44 q-0.7 0.38 -1.58 0.38 q-1.04 0 -1.46 -0.36 t-0.72 -1.38 l-0.38 -1.32 q-0.26 0.02 -0.78 0.02 l-2.84 0 z M81.52000000000001 14.620000000000001 l0.8 -0.02 l1.46 0 q0.1 0 0.35 0.01 t0.37 0.01 l-0.34 -1.24 q-0.48 -1.68 -1.1 -4.12 l-0.12 0 q-0.16 0.86 -0.96 3.82 z M94.84000000000002 17.32 l2.62 -10.98 q0.48 -0.12 1.24 -0.12 q1.04 0 1.64 0.22 l0.12 0.16 l-3.74 13.4 q-1.14 0.12 -2.29 0.12 t-1.66 -0.29 t-0.77 -1.15 l-3.32 -12.06 q1.08 -0.46 1.78 -0.46 q0.84 0 1.24 0.38 t0.62 1.2 l1.54 5.7 q0.36 1.34 0.76 3.64 q0.04 0.24 0.22 0.24 z M105.28000000000002 15.96 l-0.02 1.44 l0 0.02 q0.92 -0.04 1.48 -0.04 l4.64 0 q0 0.74 -0.06 1.14 q-0.24 1.54 -2.04 1.54 l-5.32 0 q-0.86 0 -1.35 -0.5 t-0.49 -1.36 l0 -11.72 l0.14 -0.14 l8.62 0 q0.12 0.58 0.12 1.26 t-0.28 1.42 l-5.46 0 l0.02 1.44 l0 1.4 q0.52 -0.02 1.36 -0.02 l3.06 0 q0.18 0.56 0.18 1.28 t-0.18 1.32 l-4.42 0 l0 1.52 z"></path></g><g id="SvgjsG1592" featureKey="sloganFeature-0" transform="matrix(0.6636030699590723,0,0,0.6636030699590723,137.03113941343764,55.50944801655919)" fill="url(#SvgjsLinearGradient1609)"><path d="M15.22 20 l-1.88 0 l0 -8.48 c0 -0.42 0.04 -2.24 0.04 -3.58 l-0.04 0 l-4.04 12.06 l-1.92 0 l-4.04 -12.04 l-0.04 0 c0 1.32 0.04 3.14 0.04 3.56 l0 8.48 l-1.88 0 l0 -14.36 l2.78 0 l4.1 12.14 l0.04 0 l4.08 -12.14 l2.76 0 l0 14.36 z M32.312 18.28 l0 1.72 l-10.6 0 l0 -14.36 l10.46 0 l0 1.72 l-8.52 0 l0 4.4 l7.86 0 l0 1.72 l-7.86 0 l0 4.8 l8.66 0 z M51.884 20 l-1.88 0 l0 -8.48 c0 -0.42 0.04 -2.24 0.04 -3.58 l-0.04 0 l-4.04 12.06 l-1.92 0 l-4.04 -12.04 l-0.04 0 c0 1.32 0.04 3.14 0.04 3.56 l0 8.48 l-1.88 0 l0 -14.36 l2.78 0 l4.1 12.14 l0.04 0 l4.08 -12.14 l2.76 0 l0 14.36 z M69.436 12.82 c0 -3.38 -1.88 -5.84 -5 -5.84 s-5 2.46 -5 5.84 s1.88 5.84 5 5.84 s5 -2.46 5 -5.84 z M71.436 12.82 c0 3.1 -1.64 7.56 -7 7.56 s-7 -4.46 -7 -7.56 s1.64 -7.56 7 -7.56 s7 4.46 7 7.56 z M79.248 13.84 l0 6.16 l-1.94 0 l0 -14.36 l6.64 0 c2.36 0 4.72 0.82 4.72 3.86 c0 2.12 -1.08 2.9 -2 3.44 c0.82 0.34 1.64 0.7 1.72 2.7 l0.12 2.6 c0.02 0.8 0.12 1.1 0.72 1.44 l0 0.32 l-2.38 0 c-0.28 -0.88 -0.34 -3.06 -0.34 -3.6 c0 -1.18 -0.24 -2.56 -2.56 -2.56 l-4.7 0 z M79.248 7.300000000000001 l0 4.88 l4.5 0 c1.42 0 2.92 -0.36 2.92 -2.48 c0 -2.22 -1.62 -2.4 -2.58 -2.4 l-4.84 0 z M97.08 5.640000000000001 l0 14.36 l-1.94 0 l0 -14.36 l1.94 0 z M114.53199999999998 18.28 l0 1.72 l-10.6 0 l0 -14.36 l10.46 0 l0 1.72 l-8.52 0 l0 4.4 l7.86 0 l0 1.72 l-7.86 0 l0 4.8 l8.66 0 z M130.884 9.84 l-1.82 0 c-0.1 -2.22 -1.94 -2.92 -3.56 -2.92 c-1.22 0 -3.28 0.34 -3.28 2.52 c0 1.22 0.86 1.62 1.7 1.82 l4.1 0.94 c1.86 0.44 3.26 1.56 3.26 3.84 c0 3.4 -3.16 4.34 -5.62 4.34 c-2.66 0 -3.7 -0.8 -4.34 -1.38 c-1.22 -1.1 -1.46 -2.3 -1.46 -3.64 l1.82 0 c0 2.6 2.12 3.36 3.96 3.36 c1.4 0 3.76 -0.36 3.76 -2.42 c0 -1.5 -0.7 -1.98 -3.06 -2.54 l-2.94 -0.68 c-0.94 -0.22 -3.06 -0.88 -3.06 -3.38 c0 -2.24 1.46 -4.44 4.94 -4.44 c5.02 0 5.52 3 5.6 4.58 z M159.66799999999998 20 l-1.88 0 l0 -8.48 c0 -0.42 0.04 -2.24 0.04 -3.58 l-0.04 0 l-4.04 12.06 l-1.92 0 l-4.04 -12.04 l-0.04 0 c0 1.32 0.04 3.14 0.04 3.56 l0 8.48 l-1.88 0 l0 -14.36 l2.78 0 l4.1 12.14 l0.04 0 l4.08 -12.14 l2.76 0 l0 14.36 z M173.97999999999996 15.82 l-5.76 0 l-1.5 4.18 l-2 0 l5.4 -14.36 l2.2 0 l5.2 14.36 l-2.12 0 z M168.81999999999996 14.1 l4.46 0 l-2.12 -6.32 l-0.04 0 z M181.39199999999997 7.359999999999999 l0 -1.72 l11.66 0 l0 1.72 l-4.86 0 l0 12.64 l-1.94 0 l0 -12.64 l-4.86 0 z M196.94399999999996 7.359999999999999 l0 -1.72 l11.66 0 l0 1.72 l-4.86 0 l0 12.64 l-1.94 0 l0 -12.64 l-4.86 0 z M224.53599999999994 18.28 l0 1.72 l-10.6 0 l0 -14.36 l10.46 0 l0 1.72 l-8.52 0 l0 4.4 l7.86 0 l0 1.72 l-7.86 0 l0 4.8 l8.66 0 z M232.58799999999994 13.84 l0 6.16 l-1.94 0 l0 -14.36 l6.64 0 c2.36 0 4.72 0.82 4.72 3.86 c0 2.12 -1.08 2.9 -2 3.44 c0.82 0.34 1.64 0.7 1.72 2.7 l0.12 2.6 c0.02 0.8 0.12 1.1 0.72 1.44 l0 0.32 l-2.38 0 c-0.28 -0.88 -0.34 -3.06 -0.34 -3.6 c0 -1.18 -0.24 -2.56 -2.56 -2.56 l-4.7 0 z M232.58799999999994 7.300000000000001 l0 4.88 l4.5 0 c1.42 0 2.92 -0.36 2.92 -2.48 c0 -2.22 -1.62 -2.4 -2.58 -2.4 l-4.84 0 z"></path></g>
			</g>
		</svg>
	